<?xml version="1.0" encoding="UTF-8"?>
<svg xmlns="http://www.w3.org/2000/svg" xmlns:xlink="http://www.w3.org/1999/xlink" width="30px" height="px" viewBox="0 0 30 30" version="1.1">
<g id="surface1">
<path style="fill:none;stroke-width:1.5;stroke-linecap:round;stroke-linejoin:round;stroke:rgb(100%,100%,100%);stroke-opacity:1;stroke-miterlimit:4;" d="M 6.240234 8.16862 C 6.995443 7.374349 7.26237 7.14974 7.58138 7.045573 C 7.80599 6.986979 8.037109 6.983724 8.261719 7.035807 C 8.557943 7.123698 8.632812 7.188802 9.602865 8.152344 C 10.452474 8.995443 10.537109 9.089844 10.61849 9.249349 C 10.777995 9.542318 10.800781 9.88737 10.686849 10.19987 C 10.605469 10.434245 10.481771 10.590495 9.964193 11.108073 L 9.628906 11.446615 C 9.541016 11.534505 9.521484 11.671224 9.576823 11.785156 C 10.322266 13.057943 11.380208 14.119141 12.64974 14.867839 C 12.796224 14.945964 12.978516 14.919922 13.095703 14.80599 L 13.421224 14.486979 C 13.619792 14.281901 13.83138 14.089844 14.052734 13.907552 C 14.401042 13.692708 14.83724 13.673177 15.201823 13.855469 C 15.380859 13.936849 15.442708 13.992188 16.318359 14.867839 C 17.220052 15.766276 17.249349 15.795573 17.35026 16.003906 C 17.539062 16.345703 17.535807 16.76237 17.34375 17.104167 C 17.242839 17.296224 17.1875 17.364583 16.679688 17.885417 C 16.373698 18.197917 16.080729 18.484375 16.038411 18.526693 C 15.61849 18.871745 15.08138 19.044271 14.53776 19.001953 C 13.544922 18.910807 12.584635 18.601562 11.722005 18.10026 C 9.814453 17.087891 8.190104 15.616536 6.995443 13.813151 C 6.735026 13.438802 6.503906 13.041667 6.302083 12.63151 C 5.764974 11.710286 5.488281 10.665365 5.501302 9.600911 C 5.540365 9.041016 5.807292 8.523438 6.240234 8.16862 Z M 6.240234 8.16862 " transform="matrix(1.2,0,0,1.2,0,0.6)"/>
<path style=" stroke:none;fill-rule:nonzero;fill:rgb(100%,100%,100%);fill-opacity:1;" d="M 17.808594 5.753906 C 17.34375 5.585938 16.828125 5.828125 16.660156 6.296875 C 16.492188 6.765625 16.734375 7.277344 17.203125 7.445312 Z M 22.542969 12.699219 C 22.71875 13.164062 23.238281 13.398438 23.703125 13.222656 C 24.167969 13.046875 24.402344 12.527344 24.226562 12.0625 Z M 16.382812 8.425781 C 15.898438 8.316406 15.417969 8.621094 15.308594 9.105469 C 15.199219 9.589844 15.503906 10.070312 15.988281 10.179688 Z M 19.882812 14.011719 C 20 14.496094 20.488281 14.792969 20.972656 14.675781 C 21.453125 14.558594 21.75 14.070312 21.632812 13.585938 Z M 17.203125 7.445312 C 19.664062 8.332031 21.617188 10.25 22.542969 12.699219 L 24.226562 12.0625 C 23.117188 9.121094 20.769531 6.816406 17.808594 5.753906 Z M 15.988281 10.179688 C 17.910156 10.617188 19.417969 12.101562 19.882812 14.011719 L 21.632812 13.585938 C 21.003906 11.007812 18.972656 9.011719 16.382812 8.425781 Z M 15.988281 10.179688 "/>
</g>
</svg>
