<?xml version="1.0" encoding="UTF-8"?>
<svg xmlns="http://www.w3.org/2000/svg" xmlns:xlink="http://www.w3.org/1999/xlink" width="30px" height="30px" viewBox="0 0 30 30" version="1.1">
<g id="surface1">
<path style="fill:none;stroke-width:2;stroke-linecap:round;stroke-linejoin:round;stroke:rgb(100%,100%,100%);stroke-opacity:1;stroke-miterlimit:4;" d="M 12 21 C 15.5 17.4 19 14.175 19 10.2 C 19 6.225 15.865625 3 12 3 C 8.134375 3 5 6.225 5 10.2 C 5 14.175 8.5 17.4 12 21 Z M 12 21 " transform="matrix(1.25,0,0,1.25,0,0)"/>
<path style="fill:none;stroke-width:2;stroke-linecap:round;stroke-linejoin:round;stroke:rgb(100%,100%,100%);stroke-opacity:1;stroke-miterlimit:4;" d="M 12 12 C 13.103125 12 14 11.103125 14 10 C 14 8.896875 13.103125 8 12 8 C 10.896875 8 10 8.896875 10 10 C 10 11.103125 10.896875 12 12 12 Z M 12 12 " transform="matrix(1.25,0,0,1.25,0,0)"/>
</g>
</svg>
