<?xml version="1.0" encoding="UTF-8"?>
<svg xmlns="http://www.w3.org/2000/svg" xmlns:xlink="http://www.w3.org/1999/xlink" width="25px" height="25px" viewBox="0 0 25 25" version="1.1">
<g id="surface1">
<path style="fill:none;stroke-width:2;stroke-linecap:round;stroke-linejoin:round;stroke:rgb(100%,100%,100%);stroke-opacity:1;stroke-miterlimit:4;" d="M 20.999982 7.998743 L 17.437485 9.978742 C 15.453737 11.081241 14.459988 11.63624 13.409989 11.84999 C 12.47999 12.04124 11.52374 12.04124 10.589991 11.84999 C 9.539992 11.63624 8.546243 11.081241 6.562495 9.978742 L 2.999997 7.998743 M 6.198745 19.004984 L 17.804985 19.004984 C 18.918734 19.004984 19.481234 19.004984 19.908733 18.783734 C 20.283733 18.592484 20.591233 18.284985 20.786233 17.906235 C 20.999982 17.478735 20.999982 16.923736 20.999982 15.798737 L 20.999982 8.204993 C 20.999982 7.079994 20.999982 6.521245 20.786233 6.093745 C 20.591233 5.714995 20.283733 5.411245 19.908733 5.216246 C 19.481234 4.998746 18.918734 4.998746 17.804985 4.998746 L 6.198745 4.998746 C 5.081246 4.998746 4.518746 4.998746 4.091247 5.216246 C 3.716247 5.411245 3.408747 5.714995 3.217497 6.093745 C 2.999997 6.521245 2.999997 7.079994 2.999997 8.204993 L 2.999997 15.798737 C 2.999997 16.923736 2.999997 17.478735 3.217497 17.906235 C 3.408747 18.284985 3.716247 18.592484 4.091247 18.783734 C 4.518746 19.004984 5.081246 19.004984 6.198745 19.004984 Z M 6.198745 19.004984 " transform="matrix(1.041668,0,0,1.041668,0,0)"/>
</g>
</svg>
