<svg xmlns="http://www.w3.org/2000/svg" width="109" height="117" viewBox="0 0 109 117">
  <defs>
    <style>
      .cls-1 {
        fill: #67bfab;
        fill-rule: evenodd;
      }
    </style>
  </defs>
  <path id="tilde" class="cls-1" d="M15.7,71.957c1.175-1.176,3.761-2.641,5.379-2.43,8.042,1.92,14.533,8.253,19.961,15.015a3.6,3.6,0,0,1-.24,4.578c-1.141,1.169-2.472.566-3.393-.882-2.3-3.97-5.711-6.645-9.2-9.164-3.553-2.413-7.186-4.669-11.355-5.331-1.63-.194-2.316-0.623-1.149-1.785"/>
  <path id="tilde-2" data-name="tilde" class="cls-1" d="M96.785,36.059c1.338,1.137.484,2.774-1.608,3.712-13.958,6.841-22.5,12.145-31.17,21.081-8.346,8.4-16.823,20.43-23.155,28.3-0.857,1.133-1.73.6-2.2-1.008s-0.609-3.462-.007-4.379c4.979-6.59,13.338-17.974,21.434-26.347,8.484-8.869,16.7-14.728,30.367-21.709,2.036-.965,5.006-0.777,6.338.354"/>
</svg>
